<mxfile host="app.diagrams.net" modified="2023-06-21T15:03:30.839Z" agent="Mozilla/5.0 (Macintosh; Intel Mac OS X 10.15; rv:109.0) Gecko/20100101 Firefox/111.0" etag="6IFOucPvG9VdjLNgpMKe" version="21.3.2" type="device">
  <diagram name="Seite-1" id="75WFgXqGn4w-WuiYQvpr">
    <mxGraphModel dx="1271" dy="729" grid="1" gridSize="10" guides="1" tooltips="1" connect="1" arrows="1" fold="1" page="1" pageScale="1" pageWidth="1169" pageHeight="1654" math="0" shadow="0">
      <root>
        <mxCell id="0" />
        <mxCell id="1" parent="0" />
        <mxCell id="lrKyMvSPYAoa701x116I-7" style="edgeStyle=orthogonalEdgeStyle;rounded=0;orthogonalLoop=1;jettySize=auto;html=1;entryX=0.331;entryY=0.009;entryDx=0;entryDy=0;entryPerimeter=0;" edge="1" parent="1" source="lrKyMvSPYAoa701x116I-1" target="lrKyMvSPYAoa701x116I-3">
          <mxGeometry relative="1" as="geometry" />
        </mxCell>
        <mxCell id="lrKyMvSPYAoa701x116I-8" style="edgeStyle=orthogonalEdgeStyle;rounded=0;orthogonalLoop=1;jettySize=auto;html=1;entryX=0.138;entryY=-0.018;entryDx=0;entryDy=0;entryPerimeter=0;" edge="1" parent="1" source="lrKyMvSPYAoa701x116I-1" target="lrKyMvSPYAoa701x116I-2">
          <mxGeometry relative="1" as="geometry" />
        </mxCell>
        <mxCell id="lrKyMvSPYAoa701x116I-9" style="edgeStyle=orthogonalEdgeStyle;rounded=0;orthogonalLoop=1;jettySize=auto;html=1;entryX=-0.006;entryY=0.618;entryDx=0;entryDy=0;entryPerimeter=0;" edge="1" parent="1" source="lrKyMvSPYAoa701x116I-1" target="lrKyMvSPYAoa701x116I-4">
          <mxGeometry relative="1" as="geometry">
            <Array as="points">
              <mxPoint x="80" y="618" />
            </Array>
          </mxGeometry>
        </mxCell>
        <mxCell id="lrKyMvSPYAoa701x116I-1" value="&lt;p style=&quot;margin:0px;margin-top:4px;text-align:center;text-decoration:underline;&quot;&gt;&lt;b&gt;Application&lt;/b&gt;&lt;/p&gt;&lt;hr&gt;&lt;p style=&quot;margin:0px;margin-left:8px;&quot;&gt;Main&lt;/p&gt;" style="verticalAlign=top;align=left;overflow=fill;fontSize=12;fontFamily=Helvetica;html=1;whiteSpace=wrap;" vertex="1" parent="1">
          <mxGeometry x="80" y="40" width="160" height="90" as="geometry" />
        </mxCell>
        <mxCell id="lrKyMvSPYAoa701x116I-2" value="&lt;p style=&quot;margin:0px;margin-top:4px;text-align:center;text-decoration:underline;&quot;&gt;&lt;b&gt;Model&lt;/b&gt;&lt;/p&gt;&lt;hr&gt;&lt;p style=&quot;margin:0px;margin-left:8px;&quot;&gt;DatabaseConnection&lt;/p&gt;&lt;p style=&quot;margin:0px;margin-left:8px;&quot;&gt;Enemy&lt;/p&gt;&lt;p style=&quot;margin:0px;margin-left:8px;&quot;&gt;GameModel&lt;/p&gt;&lt;p style=&quot;margin:0px;margin-left:8px;&quot;&gt;Healthbar&lt;/p&gt;&lt;p style=&quot;margin:0px;margin-left:8px;&quot;&gt;Player&lt;/p&gt;&lt;p style=&quot;margin:0px;margin-left:8px;&quot;&gt;Server&lt;/p&gt;&lt;p style=&quot;margin:0px;margin-left:8px;&quot;&gt;SpecialEnemy&lt;/p&gt;&lt;p style=&quot;margin:0px;margin-left:8px;&quot;&gt;User&lt;/p&gt;&lt;p style=&quot;margin:0px;margin-left:8px;&quot;&gt;UserDAO&lt;/p&gt;&lt;p style=&quot;margin:0px;margin-left:8px;&quot;&gt;UserDAOImpl&lt;/p&gt;&lt;p style=&quot;margin:0px;margin-left:8px;&quot;&gt;UserSettings&lt;/p&gt;&lt;p style=&quot;margin:0px;margin-left:8px;&quot;&gt;UserSettingsDAO&lt;/p&gt;&lt;p style=&quot;margin:0px;margin-left:8px;&quot;&gt;UserSettingsDAOImpl&lt;br&gt;&lt;/p&gt;" style="verticalAlign=top;align=left;overflow=fill;fontSize=12;fontFamily=Helvetica;html=1;whiteSpace=wrap;" vertex="1" parent="1">
          <mxGeometry x="470" y="300" width="160" height="220" as="geometry" />
        </mxCell>
        <mxCell id="lrKyMvSPYAoa701x116I-10" style="edgeStyle=orthogonalEdgeStyle;rounded=0;orthogonalLoop=1;jettySize=auto;html=1;entryX=-0.019;entryY=0.205;entryDx=0;entryDy=0;entryPerimeter=0;" edge="1" parent="1" source="lrKyMvSPYAoa701x116I-3" target="lrKyMvSPYAoa701x116I-2">
          <mxGeometry relative="1" as="geometry" />
        </mxCell>
        <mxCell id="lrKyMvSPYAoa701x116I-11" style="edgeStyle=orthogonalEdgeStyle;rounded=0;orthogonalLoop=1;jettySize=auto;html=1;entryX=0.2;entryY=0.009;entryDx=0;entryDy=0;entryPerimeter=0;" edge="1" parent="1">
          <mxGeometry relative="1" as="geometry">
            <mxPoint x="185" y="320" as="sourcePoint" />
            <mxPoint x="185" y="550.99" as="targetPoint" />
            <Array as="points">
              <mxPoint x="185" y="380" />
              <mxPoint x="185" y="380" />
            </Array>
          </mxGeometry>
        </mxCell>
        <mxCell id="lrKyMvSPYAoa701x116I-3" value="&lt;p style=&quot;margin:0px;margin-top:4px;text-align:center;text-decoration:underline;&quot;&gt;&lt;b&gt;Controler&lt;/b&gt;&lt;/p&gt;&lt;hr&gt;&lt;div&gt;GameController&lt;/div&gt;&lt;div&gt;HighscoreController&lt;/div&gt;&lt;div&gt;LobbyController&lt;/div&gt;&lt;div&gt;LoginController&lt;/div&gt;&lt;div&gt;SettingsController&lt;br&gt;&lt;/div&gt;" style="verticalAlign=top;align=left;overflow=fill;fontSize=12;fontFamily=Helvetica;html=1;whiteSpace=wrap;" vertex="1" parent="1">
          <mxGeometry x="130" y="210" width="160" height="110" as="geometry" />
        </mxCell>
        <mxCell id="lrKyMvSPYAoa701x116I-12" style="edgeStyle=orthogonalEdgeStyle;rounded=0;orthogonalLoop=1;jettySize=auto;html=1;entryX=0.213;entryY=1.045;entryDx=0;entryDy=0;entryPerimeter=0;" edge="1" parent="1" source="lrKyMvSPYAoa701x116I-4" target="lrKyMvSPYAoa701x116I-3">
          <mxGeometry relative="1" as="geometry">
            <Array as="points">
              <mxPoint x="164" y="490" />
              <mxPoint x="164" y="490" />
            </Array>
          </mxGeometry>
        </mxCell>
        <mxCell id="lrKyMvSPYAoa701x116I-13" style="edgeStyle=orthogonalEdgeStyle;rounded=0;orthogonalLoop=1;jettySize=auto;html=1;entryX=0.431;entryY=-0.025;entryDx=0;entryDy=0;entryPerimeter=0;" edge="1" parent="1" source="lrKyMvSPYAoa701x116I-4" target="lrKyMvSPYAoa701x116I-5">
          <mxGeometry relative="1" as="geometry" />
        </mxCell>
        <mxCell id="lrKyMvSPYAoa701x116I-4" value="&lt;p style=&quot;margin:0px;margin-top:4px;text-align:center;text-decoration:underline;&quot;&gt;&lt;b&gt;View&lt;/b&gt;&lt;/p&gt;&lt;hr&gt;&lt;div&gt;Background&lt;/div&gt;&lt;div&gt;GameView&lt;/div&gt;&lt;div&gt;HighscoreScene&lt;/div&gt;&lt;div&gt;&lt;br&gt;&lt;/div&gt;" style="verticalAlign=top;align=left;overflow=fill;fontSize=12;fontFamily=Helvetica;html=1;whiteSpace=wrap;" vertex="1" parent="1">
          <mxGeometry x="120" y="550" width="160" height="110" as="geometry" />
        </mxCell>
        <mxCell id="lrKyMvSPYAoa701x116I-5" value="&lt;p style=&quot;margin:0px;margin-top:4px;text-align:center;text-decoration:underline;&quot;&gt;&lt;b&gt;UI Elements (res)&lt;br&gt;&lt;/b&gt;&lt;/p&gt;&lt;hr&gt;&lt;div&gt;- enemy&lt;/div&gt;&lt;div&gt;- fxml&lt;/div&gt;&lt;div&gt;- oberflaechen&lt;/div&gt;&lt;div&gt;- sounds&lt;/div&gt;&lt;div&gt;- Style&lt;/div&gt;&lt;div&gt;- UserAvatar&lt;br&gt;&lt;/div&gt;&lt;div&gt;&lt;br&gt;&lt;/div&gt;" style="verticalAlign=top;align=left;overflow=fill;fontSize=12;fontFamily=Helvetica;html=1;whiteSpace=wrap;" vertex="1" parent="1">
          <mxGeometry x="130" y="730" width="160" height="120" as="geometry" />
        </mxCell>
        <mxCell id="lrKyMvSPYAoa701x116I-14" value="&lt;h2&gt;In diesem Paketdiagramm sind drei Hauptpakete und Ressourcen dargestellt: &quot;Application&quot;, &quot;Controller&quot;, &quot;Model&quot;, &quot;View&quot; und &quot;UI Elements&quot;.&lt;/h2&gt;&lt;ul&gt;&lt;li&gt;Das Paket &quot;Application&quot; stellt die Gesamtanwendung dar und ist das oberste Paket.&lt;/li&gt;&lt;li&gt;Das Paket &quot;Controller&quot; enthält die Controller-Klassen, die für die Steuerung der Anwendungslogik zuständig sind.&lt;/li&gt;&lt;li&gt;Das Paket &quot;Model&quot; enthält die Modellklassen, die die Daten der Anwendung repräsentieren, sowie die Data Access Object (DAO)-Klassen für den Zugriff auf die Datenbank.&lt;/li&gt;&lt;li&gt;Das Paket &quot;View&quot; enthält die Dateien die für die Benutzeransicht wichtig sind.&lt;br&gt;&lt;/li&gt;&lt;li&gt;Das Paket &quot;UI Elemtns&quot; enthält u.a. die FXML-Dateien, die die Benutzeroberfläche der Anwendung definieren.&lt;/li&gt;&lt;/ul&gt;" style="text;html=1;strokeColor=none;fillColor=none;spacing=5;spacingTop=-20;whiteSpace=wrap;overflow=hidden;rounded=0;" vertex="1" parent="1">
          <mxGeometry x="680" y="120" width="480" height="290" as="geometry" />
        </mxCell>
        <mxCell id="lrKyMvSPYAoa701x116I-17" value="Paketdiagramm" style="text;strokeColor=none;fillColor=none;html=1;fontSize=24;fontStyle=1;verticalAlign=middle;align=center;" vertex="1" parent="1">
          <mxGeometry x="720" y="50" width="100" height="40" as="geometry" />
        </mxCell>
      </root>
    </mxGraphModel>
  </diagram>
</mxfile>
